<?xml version="1.0" encoding="utf-8"?>
<!DOCTYPE svg PUBLIC "-//W3C//DTD SVG 1.0//EN" "http://www.w3.org/TR/2001/REC-SVG-20010904/DTD/svg10.dtd">
<svg version="1.0" xmlns="http://www.w3.org/2000/svg" width="187px" height="187px" viewBox="0 0 187 187" preserveAspectRatio="xMidYMid meet">
 <g fill="#000000">
  <path d="M68.26 156.45 l-0.05 -30.55 -0.51 -0.62 c-0.29 -0.33 -5.83 -5.97 -12.33 -12.53 l-11.82 -11.94 -21.57 0 c-18.10 0 -21.60 -0.04 -21.79 -0.26 -0.15 -0.16 -0.20 -1.41 -0.16 -4.05 l0.05 -3.82 21.73 -0.09 21.73 -0.09 7.30 -7.40 c4.04 -4.07 9.53 -9.64 12.24 -12.38 l4.93 -4.99 0.11 -2.14 c0.07 -1.17 0.13 -16.20 0.15 -33.40 0.02 -17.20 0.07 -31.39 0.13 -31.54 0.20 -0.51 1.46 -0.68 4.46 -0.62 2.52 0.05 2.94 0.09 3.27 0.40 l0.38 0.35 0 33.42 0 33.42 1.31 1.39 c1.17 1.24 9.13 9.31 19.58 19.89 2.01 2.03 3.74 3.67 3.85 3.63 0.09 -0.04 0.26 -0.64 0.33 -1.33 0.31 -2.68 0.86 -5.53 1.24 -6.56 0.46 -1.21 1.44 -2.41 2.30 -2.78 0.35 -0.13 1.24 -0.24 2.10 -0.24 2.68 0.02 3.05 0.31 8.69 7.07 l3.23 3.87 3.60 0.02 c1.97 0 3.63 -0.05 3.67 -0.13 0.05 -0.09 0.18 -0.93 0.29 -1.88 0.47 -3.94 1.30 -6.79 2.26 -7.82 0.80 -0.88 1.73 -1.21 3.41 -1.21 2.68 0 3.25 0.46 8.91 7.25 l3.18 3.78 3.67 -0.04 3.69 -0.05 0.13 -1.19 c0.49 -4.31 1.19 -7.05 2.12 -8.18 0.99 -1.24 1.35 -1.41 3.23 -1.46 2.83 -0.11 3.34 0.26 7.74 5.35 1.48 1.72 3.12 3.65 3.67 4.35 l0.99 1.22 7.25 0 c6.52 0 7.27 0.04 7.49 0.31 0.37 0.42 0.37 7.23 0.02 7.58 -0.16 0.16 -1.26 0.26 -3.96 0.33 l-3.74 0.09 1.63 1.90 c1.72 2.01 2.96 3.12 3.51 3.12 0.60 0 1.59 -1.21 1.92 -2.34 0.42 -1.48 0.47 -1.52 1.88 -1.46 l1.21 0.05 0.05 1.61 c0.04 1.39 -0.02 1.75 -0.38 2.56 -0.93 2.05 -2.39 3.05 -4.44 3.05 -1.66 0 -2.81 -0.42 -3.93 -1.42 -0.82 -0.75 -4.78 -5.19 -5.95 -6.67 l-0.38 -0.49 -10.26 0.04 -10.26 0.05 1.86 2.15 c1.75 2.05 2.70 2.87 3.27 2.87 0.51 0 1.44 -1.21 1.77 -2.28 0.18 -0.60 0.40 -1.21 0.49 -1.31 0.11 -0.15 0.64 -0.24 1.42 -0.24 1.04 0 1.28 0.05 1.44 0.35 0.51 0.99 -0.18 3.98 -1.24 5.30 -0.29 0.37 -0.89 0.86 -1.33 1.11 -0.69 0.38 -1.04 0.46 -2.45 0.46 -2.85 0 -3.41 -0.42 -8.09 -5.97 l-2.10 -2.52 -10.21 0 -10.23 0 0.99 1.13 c2.59 3.03 3.67 3.98 4.42 3.98 0.55 0 1.55 -1.24 1.86 -2.34 0.42 -1.48 0.47 -1.52 1.97 -1.46 l1.30 0.05 0 1.55 c0 1.41 -0.05 1.70 -0.60 2.78 -0.69 1.41 -1.75 2.43 -2.85 2.72 -0.42 0.11 -1.33 0.16 -2.05 0.13 -2.43 -0.16 -3.62 -1.06 -7.47 -5.70 l-2.37 -2.85 -10.06 0 -10.06 0 -6.92 6.99 c-3.82 3.83 -9.33 9.40 -12.27 12.38 l-5.33 5.41 0 30.70 0 30.72 -4.09 0 -4.11 0 -0.05 -30.55z m5.11 -2.36 l0.04 -30.44 12.80 -12.97 12.78 -12.98 9.77 -0.04 9.75 -0.05 -0.84 -1.04 -0.84 -1.06 -8.98 0 -8.98 0 -11.41 -11.54 c-6.26 -6.36 -12 -12.18 -12.73 -12.95 l-1.31 -1.39 -0.02 -31.57 c-0.02 -17.37 -0.07 -32.30 -0.15 -33.22 l-0.11 -1.64 -0.86 -0.05 -0.88 -0.05 0 33.20 0 33.20 -4.60 4.66 c-2.54 2.56 -8.31 8.40 -12.82 12.97 l-8.24 8.31 -21.37 0.09 -21.37 0.09 -0.05 1.06 -0.05 1.04 21.33 0 21.35 0 2.54 2.61 c1.41 1.42 6.88 6.96 12.16 12.27 5.28 5.33 9.95 10.08 10.35 10.56 l0.77 0.88 0 30.31 0 30.31 0.97 -0.05 0.95 -0.05 0.05 -30.44z m70.22 -56.61 c-0.09 -0.13 -0.49 -0.62 -0.86 -1.10 l-0.69 -0.88 -10.21 0 -10.21 0 0.86 1.10 0.84 1.10 10.23 0 c8.14 0 10.19 -0.05 10.04 -0.22z m25.40 0 c-0.07 -0.13 -0.47 -0.62 -0.86 -1.10 l-0.73 -0.88 -10.30 0 -10.32 0 0.89 1.08 0.88 1.10 10.28 0 c8.18 0.02 10.26 -0.04 10.15 -0.20z m12.49 -0.82 l-0.05 -1.06 -4.62 -0.05 -4.64 -0.04 0.89 1.08 0.88 1.10 3.80 0 3.80 0.02 -0.05 -1.04z m-67.39 -4.24 c-0.11 -0.33 -4.86 -5.77 -5.79 -6.65 -0.80 -0.75 -0.99 -0.84 -1.31 -0.68 -0.82 0.44 -1.35 1.97 -1.81 5.11 -0.11 0.75 -0.22 1.59 -0.27 1.88 l-0.07 0.49 4.66 0 c2.83 0 4.64 -0.07 4.60 -0.16z m25.31 -0.05 c-0.18 -0.31 -2.92 -3.52 -4.62 -5.41 -2.06 -2.30 -2.70 -2.48 -3.49 -0.97 -0.37 0.75 -0.99 3.54 -1.21 5.46 l-0.13 1.13 4.78 0 c3.78 0 4.77 -0.05 4.66 -0.22z m23.65 -1.99 c-2.54 -2.98 -4.22 -4.75 -4.88 -5.13 -0.53 -0.31 -0.57 -0.31 -1.02 0.05 -0.55 0.44 -1.10 2.05 -1.50 4.46 -0.15 0.89 -0.31 1.92 -0.37 2.25 l-0.09 0.58 4.86 0 4.86 0 -1.86 -2.21z"/>
 </g>
 <g fill="#ffffff">
  <path d="M0 93.50 l0 -93.50 93.50 0 93.50 0 0 93.50 0 93.50 -55.70 0 c-55.02 0 -55.72 0 -55.52 -0.35 0.13 -0.24 0.18 -10.23 0.18 -30.99 l0 -30.62 5.33 -5.41 c2.94 -2.98 8.46 -8.55 12.27 -12.38 l6.92 -6.99 10.61 0 10.61 0 2.37 2.85 c1.30 1.57 2.83 3.29 3.40 3.82 3.07 2.83 6.19 2.45 7.87 -0.95 0.46 -0.93 0.60 -1.46 0.60 -2.23 l0 -1.02 -0.75 -0.05 c-0.89 -0.07 -1.02 0.07 -1.42 1.46 -0.75 2.59 -2.72 3.14 -4.68 1.31 -0.88 -0.82 -4.24 -4.69 -4.35 -5.02 -0.04 -0.09 4.18 -0.16 11.07 -0.16 l11.12 0 2.10 2.52 c3.38 4 4.25 4.89 5.41 5.46 2.01 0.99 4.15 0.53 5.42 -1.15 0.77 -1 1.48 -3.23 1.26 -3.89 -0.15 -0.38 -0.29 -0.49 -0.91 -0.53 -0.88 -0.07 -0.99 0.05 -1.42 1.46 -0.38 1.28 -1 2.06 -1.86 2.34 -1.15 0.38 -2.01 -0.24 -4.71 -3.38 l-2.37 -2.74 11.29 -0.05 11.29 -0.04 0.40 0.49 c1.15 1.48 5.11 5.92 5.94 6.67 1.57 1.41 3.23 1.75 4.86 0.99 1.50 -0.68 2.68 -2.47 2.94 -4.36 0.15 -1.04 -0.09 -1.41 -0.93 -1.41 -0.73 0 -0.88 0.18 -1.26 1.50 -0.20 0.71 -0.51 1.28 -0.95 1.70 -0.55 0.55 -0.75 0.64 -1.52 0.64 -1.17 0 -1.94 -0.62 -4.58 -3.74 l-2.03 -2.37 4.20 -0.09 c3.10 -0.07 4.25 -0.15 4.44 -0.33 0.35 -0.35 0.33 -6.06 -0.02 -6.48 -0.22 -0.27 -0.97 -0.31 -7.49 -0.31 l-7.25 0 -0.99 -1.22 c-1.84 -2.30 -6.34 -7.45 -7.20 -8.24 -1.26 -1.15 -2.26 -1.55 -3.69 -1.46 -2.81 0.18 -4 2.57 -4.78 9.64 l-0.13 1.19 -4.24 0.05 -4.22 0.04 -3.18 -3.78 c-4.04 -4.86 -5.20 -6.08 -6.36 -6.70 -1.63 -0.89 -3.71 -0.60 -4.88 0.66 -0.97 1.02 -1.79 3.87 -2.26 7.82 -0.11 0.95 -0.24 1.79 -0.29 1.88 -0.04 0.07 -1.94 0.13 -4.22 0.13 l-4.15 -0.02 -3.23 -3.87 c-4.05 -4.86 -5.39 -6.25 -6.39 -6.70 -0.91 -0.42 -2.45 -0.47 -3.31 -0.13 -0.86 0.37 -1.84 1.57 -2.30 2.78 -0.38 1.02 -0.93 3.91 -1.24 6.57 l-0.15 1.28 -0.73 0.05 c-0.73 0.05 -0.75 0.04 -4.40 -3.65 -10.43 -10.56 -18.41 -18.65 -19.58 -19.89 l-1.31 -1.39 0 -33.42 -0.02 -33.44 -0.37 -0.33 c-0.33 -0.29 -0.75 -0.37 -2.72 -0.40 -2.45 -0.07 -3.73 0.13 -3.91 0.62 -0.05 0.15 -0.11 14.35 -0.13 31.54 -0.02 17.20 -0.07 32.23 -0.15 33.40 l-0.11 2.14 -4.93 4.99 c-2.70 2.74 -8.25 8.33 -12.31 12.44 l-7.40 7.43 -21.57 0 c-16.53 0 -21.62 0.05 -21.79 0.22 -0.15 0.15 -0.22 1.13 -0.22 3.25 0 2.72 0.04 3.09 0.33 3.34 0.31 0.29 2.10 0.31 21.88 0.31 l21.53 0 11.82 11.94 c6.50 6.56 12.03 12.20 12.33 12.53 l0.51 0.62 0.09 30.83 0.09 30.83 -34.46 0 -34.48 0 0 -93.50z"/>
  <path d="M70.86 154.88 l0 -30.31 -0.77 -0.88 c-0.40 -0.47 -5.08 -5.22 -10.35 -10.56 -5.28 -5.31 -10.76 -10.85 -12.16 -12.27 l-2.54 -2.61 -21.33 0 -21.35 0 0.05 -1.59 0.05 -1.61 21.37 -0.09 21.37 -0.09 8.24 -8.31 c4.51 -4.57 10.28 -10.41 12.82 -12.97 l4.60 -4.66 0 -33.20 0 -33.20 1.42 0.05 1.41 0.05 0.11 1.64 c0.07 0.91 0.13 15.85 0.15 33.22 l0.02 31.57 1.31 1.39 c0.73 0.77 6.46 6.59 12.73 12.93 l11.41 11.56 8.98 0 8.98 0 1.30 1.61 1.30 1.59 -10.21 0.05 -10.23 0.04 -12.78 12.98 -12.80 12.97 -0.04 30.44 -0.05 30.44 -1.50 0.05 -1.52 0.05 0 -30.31z"/>
  <path d="M122.35 97.70 c-0.22 -0.29 -0.75 -0.97 -1.21 -1.50 -0.44 -0.51 -0.80 -1 -0.80 -1.10 0 -0.07 5 -0.15 11.12 -0.15 l11.12 0 1.06 1.31 c0.60 0.73 1.19 1.46 1.31 1.64 0.24 0.31 -0.22 0.33 -10.99 0.33 l-11.23 0 -0.38 -0.55z"/>
  <path d="M146.86 96.86 c-0.62 -0.73 -1.19 -1.48 -1.24 -1.63 -0.09 -0.24 1.17 -0.27 11.10 -0.27 l11.23 0 1.17 1.42 c0.66 0.77 1.24 1.52 1.33 1.64 0.11 0.16 -2.17 0.22 -11.16 0.20 l-11.29 -0.02 -1.15 -1.35z"/>
  <path d="M172.21 96.77 c-0.66 -0.80 -1.22 -1.53 -1.24 -1.64 -0.05 -0.11 1.97 -0.15 5.48 -0.13 l5.53 0.05 0.05 1.61 0.05 1.59 -4.35 0 -4.35 -0.02 -1.19 -1.46z"/>
  <path d="M104.35 91.82 c0.18 -1.79 0.60 -4.22 0.95 -5.42 0.37 -1.28 1.10 -2.03 1.97 -2.03 0.84 0 1.61 0.68 4.47 4.02 3.43 4 3.85 4.51 3.73 4.64 -0.05 0.05 -2.61 0.11 -5.68 0.11 l-5.57 0 0.13 -1.31z"/>
  <path d="M129.42 93.01 c-0.13 -0.24 0.22 -3.12 0.62 -5.06 0.57 -2.78 1.10 -3.58 2.36 -3.58 1.17 0 1.59 0.40 6.36 5.97 1.64 1.92 2.14 2.61 1.94 2.68 -0.42 0.16 -11.18 0.13 -11.27 -0.02z"/>
  <path d="M154.68 92.59 c0 -0.95 0.55 -4.24 0.95 -5.75 0.66 -2.43 1.79 -3.09 3.38 -1.94 0.97 0.71 7.18 7.72 7.18 8.13 0 0.05 -2.59 0.11 -5.75 0.11 l-5.75 0 0 -0.55z"/>
 </g>
</svg>